<svg version="1.1" id="Layer_1" xmlns="http://www.w3.org/2000/svg" xmlns:xlink="http://www.w3.org/1999/xlink" x="0px" y="0px"
	 width="100%" viewBox="0 0 1024 1024" enable-background="new 0 0 1024 1024" xml:space="preserve">
<path fill="#000000" opacity="1.000000" stroke="none" 
	d="
M393.322937,476.989441 
	C393.318573,480.820282 393.316864,484.153534 393.308746,487.486755 
	C393.298004,491.898346 391.303925,494.148071 386.680023,494.414612 
	C381.549896,494.710358 376.462189,495.686981 371.334503,496.099670 
	C368.471497,496.330078 367.256989,497.859283 366.654114,500.367279 
	C364.933167,507.526428 362.275299,514.348389 358.868073,520.855042 
	C357.779449,522.934021 357.952881,524.499756 359.284515,526.335876 
	C362.413940,530.650879 365.283905,535.156311 368.468109,539.428711 
	C370.827911,542.594910 371.006378,545.439636 368.210754,548.350647 
	C361.055603,555.801208 353.925262,563.275635 346.761292,570.717712 
	C343.766754,573.828491 340.734497,572.676575 337.823517,570.586609 
	C333.630371,567.576172 329.418488,564.581909 325.368378,561.385803 
	C323.059906,559.564148 321.107697,559.592102 318.592590,561.029297 
	C312.206696,564.678284 305.380585,567.437439 298.260986,569.208679 
	C294.086761,570.247253 292.656830,572.657410 292.325928,576.582275 
	C291.866241,582.034241 291.067749,587.456970 290.476410,592.898926 
	C290.124176,596.140442 288.150360,597.697510 285.142273,597.724121 
	C273.984924,597.822998 262.825562,597.842407 251.668503,597.733032 
	C248.374069,597.700745 247.179001,595.188354 246.810822,592.340881 
	C246.044785,586.416382 245.198715,580.490479 244.781387,574.537476 
	C244.571609,571.545105 243.392517,570.112183 240.615875,569.220215 
	C233.467010,566.924011 226.524063,564.052856 220.100967,560.136292 
	C217.794830,558.730103 216.177917,559.177490 214.281281,560.668640 
	C209.959488,564.066589 205.537460,567.336609 201.178207,570.687317 
	C197.715561,573.348816 194.669998,573.227112 191.507339,569.950745 
	C185.143967,563.358582 178.531921,557.007263 172.100983,550.479248 
	C167.588791,545.898987 167.466812,543.892151 171.098038,538.740540 
	C173.497498,535.336487 175.806061,531.852722 178.427048,528.625305 
	C180.477386,526.100647 180.819641,523.876038 179.174393,520.953857 
	C175.400894,514.251526 172.818420,507.016083 170.816940,499.618256 
	C169.973923,496.502380 168.490311,495.392273 165.283936,495.211487 
	C159.986984,494.912842 154.730713,493.945526 149.445206,493.371216 
	C146.178680,493.016296 144.713409,491.149384 144.702820,488.058899 
	C144.665115,477.059418 144.708359,466.059692 144.685135,455.060120 
	C144.675934,450.702209 147.574127,449.336731 151.135590,448.906891 
	C155.752029,448.349762 160.395279,447.831879 165.036743,447.726685 
	C168.348557,447.651642 170.352081,446.574066 171.242126,443.275146 
	C173.291077,435.680847 176.507980,428.531647 180.211533,421.630219 
	C181.629395,418.988068 181.271332,417.092316 179.494720,414.893372 
	C176.355942,411.008453 173.422195,406.957611 170.410995,402.969910 
	C168.004959,399.783600 168.348297,396.951996 171.210007,394.121429 
	C178.198959,387.208527 185.083130,380.189270 191.977386,373.181244 
	C194.925842,370.184143 197.959091,369.989838 201.295502,372.532196 
	C205.666641,375.863037 210.164673,379.030914 214.469513,382.443695 
	C216.600586,384.133118 218.438736,384.273071 220.821640,382.951385 
	C226.809006,379.630371 233.171997,377.115479 239.762085,375.296265 
	C242.988510,374.405579 244.370270,372.588226 244.701981,369.354645 
	C245.243805,364.073120 246.111206,358.825775 246.785309,353.556854 
	C247.379852,348.909912 249.540161,346.465546 254.650803,346.599518 
	C264.144073,346.848328 273.649323,346.745667 283.147919,346.639038 
	C287.747131,346.587372 290.153992,348.151123 290.510254,353.202118 
	C290.917023,358.968903 292.309601,364.660797 293.120117,370.406921 
	C293.473633,372.913177 294.802856,374.129089 297.116669,374.881195 
	C304.883667,377.405945 312.543976,380.234985 319.557648,384.504242 
	C321.669098,385.789490 322.982849,384.606354 324.436310,383.475952 
	C329.039093,379.896057 333.641846,376.316101 338.238983,372.728973 
	C341.497772,370.186127 344.365906,370.189697 347.421173,373.372284 
	C354.113800,380.343964 360.987244,387.144989 367.887268,393.913300 
	C370.782715,396.753510 371.039581,399.414917 368.518372,402.663818 
	C365.047302,407.136780 361.897614,411.858124 358.465698,416.362885 
	C356.945129,418.358765 356.917267,419.990326 358.113861,422.233337 
	C361.565765,428.703949 364.420227,435.478912 366.242310,442.587799 
	C367.164886,446.187225 369.323975,447.310364 372.634613,447.655731 
	C377.750549,448.189392 382.830109,449.074219 387.946777,449.598602 
	C391.952576,450.009125 393.348389,452.294464 393.329926,455.992981 
	C393.295776,462.825745 393.321747,469.658844 393.322937,476.989441 
M295.046448,404.491455 
	C283.629486,400.399384 272.082184,398.629364 259.813385,400.130737 
	C223.871399,404.529144 191.094345,437.447632 196.569107,482.470184 
	C201.638077,524.155518 242.602127,552.927734 283.713989,544.428711 
	C315.540222,537.849243 339.302734,510.866425 341.492493,478.109894 
	C343.680664,445.376831 326.169250,418.139404 295.046448,404.491455 
z"/>
<path fill="#000000" opacity="1.000000" stroke="none" 
	d="
M593.349487,525.990967 
	C593.347473,539.320129 593.347473,539.320007 580.530640,539.315735 
	C576.864136,539.314453 573.197632,539.321411 569.531128,539.312500 
	C562.843628,539.296204 562.832275,539.292419 562.822998,532.783875 
	C562.794006,512.451477 562.764221,492.119049 562.753601,471.786652 
	C562.739502,444.787842 562.850342,417.788239 562.640930,390.791016 
	C562.603210,385.928711 564.151001,384.418457 568.918457,384.601562 
	C577.405579,384.927612 585.917236,384.825531 594.412354,384.630219 
	C597.894409,384.550140 599.790039,385.845734 601.380676,388.939087 
	C614.785278,415.007874 627.736450,441.297699 640.309448,467.775909 
	C641.083069,469.405151 641.992676,470.969849 643.336304,473.501587 
	C645.103577,470.058960 646.509705,467.363312 647.877625,464.648315 
	C660.318481,439.955505 672.835083,415.300140 685.110413,390.525238 
	C687.241577,386.224060 689.847107,384.397003 694.744690,384.640869 
	C702.724365,385.038239 710.740967,384.854279 718.737122,384.685852 
	C722.185181,384.613220 723.396118,385.854187 723.390625,389.323944 
	C723.313782,437.821686 723.311218,486.319611 723.392395,534.817322 
	C723.398315,538.349304 722.106323,539.455505 718.700317,539.370850 
	C711.371826,539.188538 704.031799,539.169250 696.704346,539.370361 
	C692.901733,539.474731 691.817749,537.858276 691.862549,534.312012 
	C692.201111,507.488434 691.437744,480.655975 692.559326,453.836792 
	C692.753906,449.184662 692.586853,444.517365 691.873962,439.527191 
	C690.041077,443.072693 688.169250,446.598694 686.381775,450.166901 
	C675.941956,471.007721 665.457581,491.826691 655.159424,512.737427 
	C653.466003,516.175903 651.278625,517.051392 647.525085,517.576660 
	C636.767212,519.082031 630.964172,515.243835 626.486938,504.978180 
	C617.508362,484.391693 606.830750,464.545929 596.841003,444.401123 
	C596.120239,442.947632 595.290222,441.548340 593.349182,440.319702 
	C593.349182,468.710602 593.349182,497.101532 593.349487,525.990967 
z"/>
<path fill="#000000" opacity="1.000000" stroke="none" 
	d="
M810.596802,499.351074 
	C805.926697,493.319061 801.462524,487.576141 796.727783,481.485077 
	C793.156128,485.358582 790.020020,488.769287 786.872437,492.169373 
	C785.236206,493.936859 785.343201,496.120697 785.343201,498.294739 
	C785.343262,510.292206 785.192810,522.292114 785.404236,534.285767 
	C785.475220,538.315186 784.014648,539.508179 780.164917,539.384155 
	C773.007202,539.153748 765.833923,539.199829 758.672668,539.367310 
	C755.192017,539.448730 753.669617,538.490234 753.540466,534.641418 
	C751.986755,488.334625 752.869629,442.020447 752.976440,395.709320 
	C752.984436,392.252808 753.498047,388.797516 753.823914,384.754150 
	C763.590759,384.754150 773.033508,384.679779 782.474182,384.791382 
	C786.158508,384.834900 785.301819,387.887482 785.309631,390.022034 
	C785.371460,406.851654 785.342285,423.681549 785.341187,440.511383 
	C785.341003,442.598785 785.341125,444.686157 785.341125,446.773560 
	C785.718323,446.881470 786.095520,446.989380 786.472717,447.097290 
	C791.633301,441.307861 796.837524,435.556671 801.945679,429.721405 
	C814.013000,415.936188 826.051941,402.125977 838.054443,388.284302 
	C839.659119,386.433685 841.356995,385.035370 843.933472,385.040649 
	C855.596436,385.064545 867.259338,385.064697 878.922241,385.107483 
	C879.524292,385.109680 880.125183,385.426453 880.785095,385.613281 
	C880.698120,388.275513 878.837708,389.645844 877.478516,391.166962 
	C859.055054,411.785217 840.623962,432.397461 822.031372,452.862793 
	C819.234009,455.942017 818.485107,458.020996 821.399841,461.650421 
	C838.401489,482.820251 855.198669,504.155548 871.924988,525.544312 
	C875.365112,529.943420 879.228088,534.107056 882.165344,539.974792 
	C875.346375,540.300659 869.062134,540.060303 862.960022,541.001526 
	C848.875061,543.174194 838.686584,538.981934 831.148987,526.179993 
	C825.535217,516.645508 817.667053,508.438416 810.596802,499.351074 
z"/>
<path fill="#000000" opacity="1.000000" stroke="none" 
	d="
M502.412079,506.390778 
	C509.560974,497.163605 507.411713,487.979340 497.250031,483.308472 
	C489.636627,479.808899 481.356842,478.545044 473.325623,476.475189 
	C465.099548,474.355103 457.086456,471.677521 449.203552,468.512451 
	C428.916107,460.366852 423.413483,441.352600 425.016174,424.725494 
	C427.674835,397.144012 449.108124,386.120178 468.730011,383.621399 
	C488.921875,381.050110 508.484283,383.523529 527.405090,391.021851 
	C528.949768,391.634003 530.444702,392.382690 531.928894,393.134766 
	C539.391785,396.916168 539.531738,397.346802 535.055115,404.585968 
	C531.039978,411.078796 526.938660,417.518250 523.129211,423.577484 
	C520.951965,424.198242 520.069031,422.971649 518.998169,422.280273 
	C504.894592,413.175323 489.513611,410.544342 473.130676,413.408203 
	C467.921692,414.318756 463.128052,416.291168 460.734436,421.575989 
	C457.796722,428.061981 460.018585,434.130066 466.869965,437.926788 
	C474.077972,441.921112 482.146851,443.493256 489.985077,445.670105 
	C499.441925,448.296509 508.802338,451.143311 517.861755,454.999969 
	C537.911133,463.535217 543.746277,482.531464 540.725525,500.208832 
	C536.572815,524.510864 520.965576,537.975220 494.578247,541.178467 
	C470.965210,544.044922 448.556641,539.964661 427.635406,528.417236 
	C420.703918,524.591431 420.646790,524.398499 424.804321,517.560486 
	C428.769501,511.038849 432.795685,504.554321 436.941925,497.814789 
	C437.893921,498.173828 438.717102,498.318817 439.348206,498.746887 
	C450.889465,506.575653 463.704407,511.056274 477.487457,512.315002 
	C486.155212,513.106628 494.810120,512.351440 502.412079,506.390778 
z"/>
<path fill="#000000" opacity="1.000000" stroke="none" 
	d="
M164.460892,663.058350 
	C159.370178,657.649658 158.032074,650.468750 153.306671,643.660706 
	C153.306671,651.403442 153.201233,657.970703 153.351044,664.532104 
	C153.426163,667.822510 152.493515,669.426453 148.851685,669.352051 
	C145.403931,669.281616 144.684158,667.622620 144.704239,664.645996 
	C144.777298,653.815796 144.693405,642.984558 144.723129,632.153870 
	C144.728806,630.083923 144.151154,627.458374 147.379929,627.185791 
	C150.295563,626.939697 153.410477,626.201782 155.191742,629.810547 
	C158.287735,636.082825 161.535309,642.280396 164.740341,648.498535 
	C165.108932,649.213562 165.611435,649.859558 166.536407,651.283569 
	C170.331802,644.052307 174.000015,637.436829 177.286102,630.636658 
	C178.808426,627.486389 181.069519,626.851196 184.145889,626.965271 
	C186.603485,627.056458 187.916199,628.093506 187.923264,630.555359 
	C187.957260,642.384399 187.974869,654.213501 187.970200,666.042542 
	C187.968979,669.159058 185.779175,669.245789 183.460114,669.259583 
	C181.065369,669.273804 179.667206,668.433533 179.679352,665.813171 
	C179.702515,660.814819 179.701584,655.814880 179.593445,650.818237 
	C179.555511,649.065308 180.166595,647.138428 178.477112,645.319641 
	C175.084015,649.792114 173.015991,654.854309 170.571960,659.679199 
	C169.315002,662.160583 167.910858,663.895020 164.460892,663.058350 
z"/>
<path fill="#000000" opacity="1.000000" stroke="none" 
	d="
M267.729462,633.145447 
	C267.365509,628.963501 268.148682,626.440491 272.770538,626.936340 
	C275.242065,627.201477 276.330627,628.146362 276.320038,630.647888 
	C276.270752,642.293152 276.300629,653.938660 276.276001,665.584106 
	C276.272766,667.096313 276.228821,668.798340 274.261108,669.072632 
	C271.622620,669.440430 268.954041,669.767212 267.063629,667.063599 
	C262.680328,660.794678 258.226685,654.574951 253.781418,648.349609 
	C252.632950,646.741211 251.410095,645.185974 249.253983,642.320740 
	C249.253983,650.738647 249.223694,657.737427 249.269623,664.735718 
	C249.286774,667.346985 248.869827,669.260254 245.554535,669.322021 
	C242.327576,669.382202 240.605316,668.553040 240.651627,664.890869 
	C240.786255,654.245300 240.629227,643.596313 240.722549,632.949829 
	C240.741028,630.841125 239.624176,627.932007 243.005264,627.182617 
	C246.069290,626.503540 248.909393,626.751770 250.948425,629.754333 
	C255.245209,636.081787 259.659943,642.329224 264.039642,648.600159 
	C264.974976,649.939331 265.967194,651.238831 267.726898,653.639282 
	C267.726898,646.136536 267.726898,639.880005 267.729462,633.145447 
z"/>
<path fill="#000000" opacity="1.000000" stroke="none" 
	d="
M352.020203,647.003418 
	C353.456268,648.991211 354.680054,650.697083 355.903870,652.402893 
	C356.214905,652.305420 356.525909,652.207947 356.836945,652.110413 
	C356.836945,645.678955 356.885590,639.246887 356.816193,632.816162 
	C356.782043,629.649231 356.583984,626.839355 361.221375,626.836304 
	C365.686584,626.833313 365.351288,629.609436 365.347748,632.511353 
	C365.335205,642.841187 365.398895,653.171631 365.293915,663.500427 
	C365.273865,665.469849 366.357361,668.283386 363.422852,669.044434 
	C360.418884,669.823547 357.619568,669.406677 355.561829,666.343872 
	C351.384827,660.126770 346.954437,654.078918 342.580872,647.995483 
	C341.738464,646.823792 341.191559,645.272461 339.427185,644.952637 
	C337.665161,645.891968 338.395905,647.581238 338.368958,648.932983 
	C338.272736,653.762817 338.297180,658.595886 338.338165,663.427246 
	C338.364655,666.550964 338.608063,669.440247 333.913055,669.358521 
	C329.512360,669.281921 329.766693,666.554382 329.765686,663.631470 
	C329.762085,653.301636 329.688629,642.971558 329.751587,632.642212 
	C329.763763,630.643433 328.802429,627.820435 331.777649,627.184753 
	C334.685028,626.563660 337.767090,626.406494 339.857697,629.476990 
	C343.793518,635.257568 347.819458,640.976746 352.020203,647.003418 
z"/>
<path fill="#000000" opacity="1.000000" stroke="none" 
	d="
M848.045288,636.016602 
	C852.309265,642.007202 856.358582,647.708313 860.838928,654.016357 
	C860.838928,646.251953 860.932068,639.104004 860.796448,631.960388 
	C860.735962,628.774658 861.468933,626.977905 865.162048,626.945190 
	C869.062805,626.910583 869.379578,629.083252 869.359863,632.080627 
	C869.290833,642.574280 869.392273,653.069275 869.288330,663.562378 
	C869.268921,665.520996 870.351501,668.321594 867.340271,669.047974 
	C864.305115,669.780090 861.542114,669.311707 859.475830,666.299011 
	C853.923828,658.204102 848.158630,650.255310 842.031494,641.619080 
	C842.031494,649.282043 842.037109,656.285889 842.028870,663.289734 
	C842.025269,666.318298 842.457214,669.394653 837.680176,669.318359 
	C833.174866,669.246338 833.667725,666.322021 833.662903,663.505432 
	C833.645325,653.177856 833.608337,642.849854 833.698730,632.523071 
	C833.716064,630.551086 832.759949,627.795044 835.904907,627.211487 
	C838.550293,626.720520 841.296692,626.688843 843.177124,629.227600 
	C844.762817,631.368530 846.281982,633.558716 848.045288,636.016602 
z"/>
<path fill="#000000" opacity="1.000000" stroke="none" 
	d="
M474.368103,654.574646 
	C474.285431,658.171936 474.196014,661.333740 474.256439,664.492737 
	C474.310181,667.301636 473.880585,669.312378 470.278931,669.345154 
	C467.062927,669.374329 465.624786,668.703308 465.403778,665.013184 
	C464.716248,653.534180 465.363434,642.067444 465.184265,630.598999 
	C465.138763,627.688416 466.794342,626.891052 469.335693,626.970581 
	C471.720276,627.045166 474.209167,626.871338 474.202789,630.368225 
	C474.197021,633.528992 474.319061,636.692200 474.229004,639.849915 
	C474.149231,642.647095 475.401001,643.686340 478.135345,643.645447 
	C493.231873,643.419678 490.719421,645.457947 490.952698,632.130859 
	C491.003510,629.228882 491.094757,626.916443 495.066284,626.889221 
	C498.838837,626.863342 500.010284,628.480408 499.983673,631.982239 
	C499.901428,642.795471 499.930786,653.610291 500.019897,664.423645 
	C500.046051,667.599548 499.218292,669.379517 495.537384,669.352478 
	C491.961823,669.326172 490.757629,667.749084 490.996887,664.474182 
	C491.057312,663.646790 491.118500,662.792419 490.984650,661.982605 
	C490.465515,658.842407 492.747528,654.211914 489.304291,652.839600 
	C484.997528,651.123169 479.879791,651.414246 475.177551,652.907166 
	C474.831818,653.016907 474.672546,653.713989 474.368103,654.574646 
z"/>
<path fill="#000000" opacity="1.000000" stroke="none" 
	d="
M715.513550,656.280884 
	C713.949097,653.964111 711.906555,653.802795 709.961487,654.473389 
	C707.654968,655.268616 708.472534,657.529236 708.364502,659.251953 
	C708.250122,661.077087 708.229675,662.921082 708.348877,664.745056 
	C708.550720,667.831970 707.473145,669.323364 704.112305,669.298096 
	C700.855774,669.273621 699.721252,667.965820 699.747131,664.802734 
	C699.838440,653.644775 699.826904,642.485046 699.718079,631.327209 
	C699.689514,628.399353 700.733765,626.928772 703.725525,627.014160 
	C709.207764,627.170654 714.695618,626.635620 720.175232,627.542786 
	C725.360352,628.401123 729.400574,630.738525 731.008972,635.873962 
	C732.675476,641.194824 731.791870,646.381958 727.279480,649.920166 
	C724.029724,652.468323 724.567871,654.486145 726.300903,657.457520 
	C728.357605,660.983887 731.258423,664.097473 732.319641,668.208679 
	C725.551514,670.518616 723.650879,669.861694 720.354248,664.292358 
	C718.828003,661.713989 717.269043,659.154907 715.513550,656.280884 
M713.593872,645.859375 
	C715.083740,645.832825 716.576233,645.852722 718.062988,645.770386 
	C721.425232,645.584290 723.450195,643.580811 723.405640,640.423340 
	C723.364014,637.471924 721.221191,635.694031 718.190918,635.419739 
	C716.546692,635.270874 714.881409,635.366455 713.226501,635.320557 
	C710.557312,635.246521 708.073425,635.362183 708.356140,639.102905 
	C708.586914,642.156616 707.062378,646.316650 713.593872,645.859375 
z"/>
<path fill="#000000" opacity="1.000000" stroke="none" 
	d="
M685.837280,596.683716 
	C682.211060,583.973389 689.591736,572.737366 697.931396,569.829651 
	C708.883972,566.011047 720.823486,571.081909 724.820068,581.521790 
	C729.215088,593.002502 724.076904,605.749268 713.375671,609.912720 
	C702.140076,614.284180 690.655518,608.916443 685.837280,596.683716 
M713.927185,599.401367 
	C715.753906,597.586914 716.798340,595.327209 717.363708,592.880188 
	C719.442078,583.882996 711.909119,575.179077 703.674683,576.964905 
	C697.688416,578.263184 694.797424,582.353943 693.649536,587.995361 
	C692.667297,592.822449 695.280273,598.544739 699.661255,601.269714 
	C704.576782,604.327148 709.122009,603.438721 713.927185,599.401367 
z"/>
<path fill="#000000" opacity="1.000000" stroke="none" 
	d="
M218.024536,643.867188 
	C219.834900,643.866150 221.166885,643.905945 222.496033,643.861145 
	C225.266739,643.767883 227.302292,644.157837 227.355667,647.800049 
	C227.414932,651.843445 224.980789,651.966614 222.136139,651.873718 
	C218.981277,651.770691 215.827988,651.620239 212.673538,651.503052 
	C209.399216,651.381409 208.932144,653.369690 209.071976,656.060120 
	C209.202255,658.566406 209.302750,660.754211 212.739548,660.664124 
	C217.061096,660.550842 221.392761,660.779724 225.711716,660.625977 
	C228.983994,660.509583 230.112595,661.939331 230.104660,665.074890 
	C230.097214,668.012146 229.011429,669.328674 225.999588,669.293396 
	C218.681702,669.207703 211.361649,669.221680 204.043442,669.294128 
	C201.091217,669.323364 199.855637,668.053833 199.870056,665.100586 
	C199.925262,653.789795 199.923172,642.478149 199.835632,631.167664 
	C199.812775,628.213623 200.990768,626.914429 203.956253,626.943604 
	C211.108124,627.013916 218.261932,627.040955 225.413208,626.948669 
	C228.543854,626.908264 229.334549,628.441528 229.352829,631.278076 
	C229.372330,634.302856 228.157516,635.468506 225.193375,635.374023 
	C221.371689,635.252136 217.539398,635.458252 213.718048,635.331238 
	C210.708725,635.231323 209.053574,636.059143 209.073456,639.494507 
	C209.092255,642.744690 210.398102,644.067261 213.553787,643.861450 
	C214.878342,643.775085 216.214157,643.861694 218.024536,643.867188 
z"/>
<path fill="#000000" opacity="1.000000" stroke="none" 
	d="
M676.167603,605.874146 
	C677.116455,607.394165 678.586121,608.258179 678.348267,609.988770 
	C671.640869,612.270996 668.728821,611.351379 664.638123,606.193359 
	C661.664307,602.443542 659.390869,598.126038 655.697388,594.723938 
	C650.376526,597.222595 652.380981,601.953918 652.312317,605.712158 
	C652.240173,609.658447 650.800781,611.116333 646.963806,610.888123 
	C644.223450,610.725159 643.067871,609.472778 643.102722,606.830444 
	C643.254333,595.340515 642.758728,583.849365 643.429871,572.355042 
	C643.630310,568.922241 645.365295,568.763123 647.952576,568.732300 
	C650.847778,568.697876 652.304199,569.732117 652.224854,572.786621 
	C652.122925,576.709167 652.200012,580.636353 652.200012,584.561584 
	C652.644775,584.733826 653.089478,584.906067 653.534241,585.078308 
	C657.338318,581.022522 661.470459,577.220459 664.856567,572.841553 
	C668.440857,568.206604 672.690552,568.186646 678.769165,569.458557 
	C674.131775,574.385071 670.295837,578.893677 665.990356,582.897461 
	C662.528687,586.116516 662.682556,588.700073 665.604797,592.123535 
	C669.275391,596.423706 672.525208,601.082947 676.167603,605.874146 
z"/>
<path fill="#000000" opacity="1.000000" stroke="none" 
	d="
M823.073486,608.400085 
	C822.968140,596.652832 822.994019,585.343872 822.891479,574.036072 
	C822.861877,570.777954 823.402100,568.713318 827.458069,568.663574 
	C831.745117,568.610962 832.277222,570.744080 832.300903,574.245178 
	C832.388306,587.140076 830.193359,585.401489 844.153564,585.705994 
	C848.266052,585.795715 850.024658,584.445618 849.643555,580.286499 
	C849.447144,578.142822 849.701904,575.961609 849.602295,573.804321 
	C849.462769,570.784790 849.939148,568.744751 853.798340,568.677979 
	C857.903748,568.606995 858.361328,570.741089 858.331360,573.998474 
	C858.233398,584.641846 858.207031,595.287659 858.338257,605.930237 
	C858.378479,609.199341 857.502747,610.899292 853.903503,610.845703 
	C850.365906,610.792908 849.169861,609.154846 849.629150,605.875427 
	C849.652039,605.712341 849.632751,605.543213 849.631226,605.376892 
	C849.513916,592.572205 848.244873,591.560120 835.350769,593.358643 
	C832.964417,593.691528 832.248169,594.871460 832.251099,596.972168 
	C832.254883,599.633118 832.375183,602.302917 832.196594,604.952087 
	C832.063171,606.930664 833.233337,609.716797 830.265259,610.450500 
	C827.802551,611.059204 824.954895,611.834961 823.073486,608.400085 
z"/>
<path fill="#000000" opacity="1.000000" stroke="none" 
	d="
M377.448181,657.143921 
	C376.035767,652.774231 375.150116,648.724426 375.936707,644.507080 
	C378.785339,629.234070 394.194702,621.929810 408.124390,629.194763 
	C410.455688,630.410645 412.043579,631.623291 410.380188,634.580261 
	C408.959778,637.105225 407.712524,638.303955 404.557251,636.674133 
	C391.951996,630.163147 383.752869,640.442688 384.344604,649.066101 
	C384.920410,657.457703 392.731384,663.000671 400.673615,660.549255 
	C403.018158,659.825623 403.675293,658.198120 403.596252,655.964661 
	C403.514099,653.642944 401.985474,653.261414 400.173737,653.369873 
	C397.175537,653.549377 395.560333,652.677979 395.615509,649.207153 
	C395.678223,645.258545 398.243561,645.608032 400.736145,645.635742 
	C414.355957,645.786926 411.975189,644.042480 412.189362,656.895508 
	C412.332703,665.499023 411.161804,667.181580 403.052704,668.846191 
	C392.358002,671.041626 381.104675,667.531067 377.448181,657.143921 
z"/>
<path fill="#000000" opacity="1.000000" stroke="none" 
	d="
M594.986084,669.284180 
	C590.330139,669.279846 586.168945,669.206482 582.011047,669.293579 
	C579.127625,669.353882 577.742615,668.255432 577.759338,665.214966 
	C577.822449,653.734314 577.805786,642.252808 577.728577,630.772156 
	C577.709351,627.910522 579.132690,626.969055 581.724426,626.977478 
	C588.712708,627.000183 595.702209,627.042236 602.689209,626.939819 
	C605.835449,626.893738 607.223877,628.088684 607.148865,631.352661 
	C607.078796,634.397522 605.713135,635.442261 602.829773,635.368164 
	C598.673035,635.261414 594.508240,635.457642 590.352173,635.338928 
	C587.285767,635.251343 586.302795,636.626953 586.316406,639.559753 
	C586.329468,642.406311 587.117371,643.978333 590.259583,643.873718 
	C593.749512,643.757629 597.251221,643.976685 600.739563,643.839111 
	C603.557495,643.727966 604.528809,644.833069 604.463440,647.648804 
	C604.397583,650.482971 603.631958,652.040771 600.490479,651.917603 
	C596.845154,651.774658 593.186584,651.974182 589.540894,651.836548 
	C586.179871,651.709717 586.355103,653.915527 586.357361,656.160767 
	C586.359619,658.407288 586.229370,660.651489 589.496216,660.634521 
	C594.154846,660.610291 598.816650,660.761719 603.471863,660.639282 
	C606.646729,660.555725 607.380432,662.149963 607.376648,664.954041 
	C607.372803,667.753784 606.643250,669.425293 603.467651,669.282043 
	C600.811279,669.162109 598.144409,669.274292 594.986084,669.284180 
z"/>
<path fill="#000000" opacity="1.000000" stroke="none" 
	d="
M315.351685,648.256714 
	C315.630249,651.561401 313.773041,651.904724 311.551483,651.887451 
	C308.055359,651.860291 304.549896,652.034485 301.065308,651.831970 
	C298.149994,651.662598 297.233490,652.886108 297.314056,655.624756 
	C297.392303,658.283264 297.299835,660.732849 301.063354,660.646545 
	C305.389587,660.547302 309.723938,660.752380 314.047821,660.612122 
	C317.266174,660.507690 318.426361,661.782349 318.401306,665.018311 
	C318.375549,668.342896 316.949310,669.367859 313.858521,669.319397 
	C306.867462,669.209656 299.872925,669.228210 292.881073,669.307251 
	C289.972076,669.340088 288.650543,668.234497 288.671539,665.199402 
	C288.749695,653.878357 288.745239,642.555847 288.650604,631.234924 
	C288.626404,628.338379 289.625031,626.885376 292.649353,626.910339 
	C299.641510,626.967957 306.636688,626.824707 313.626129,626.974182 
	C317.610596,627.059448 317.967255,628.122131 316.700989,635.367432 
	C312.060516,635.367432 307.286591,635.417542 302.514404,635.348877 
	C299.579468,635.306702 297.350342,635.557556 297.265106,639.492188 
	C297.181458,643.351685 299.147247,643.921509 302.226715,643.816833 
	C305.219818,643.715088 308.222198,643.891235 311.215729,643.795715 
	C314.101227,643.703613 315.678955,644.755127 315.351685,648.256714 
z"/>
<path fill="#000000" opacity="1.000000" stroke="none" 
	d="
M620.000732,585.730530 
	C621.975342,585.741150 623.472717,585.797058 624.967468,585.756409 
	C627.637756,585.683777 628.337402,587.185120 628.317871,589.554932 
	C628.298706,591.879700 627.704041,593.404846 624.984619,593.362000 
	C621.328308,593.304382 617.667175,593.491150 614.012939,593.392334 
	C610.250793,593.290649 610.381775,595.704468 610.292786,598.374207 
	C610.198547,601.198181 610.848572,602.807007 614.096130,602.633362 
	C618.408142,602.402771 622.738037,602.518433 627.052551,602.318970 
	C629.937805,602.185547 631.328308,603.111450 631.328003,606.247192 
	C631.327698,609.233093 630.651733,611.001343 627.226990,610.951416 
	C620.079407,610.847107 612.929199,610.916687 605.780029,610.927002 
	C602.952209,610.931030 601.603699,609.757996 601.631958,606.716492 
	C601.737061,595.411499 601.723755,584.104492 601.636230,572.799194 
	C601.612427,569.733826 602.988464,568.710938 605.871399,568.748413 
	C612.687012,568.837036 619.505737,568.852173 626.320923,568.747620 
	C629.344543,568.701233 630.407654,569.987183 630.385315,572.931335 
	C630.364075,575.732788 629.634583,577.355530 626.475769,577.273315 
	C622.322510,577.165222 618.162292,577.344299 614.007690,577.262634 
	C610.710266,577.197815 610.310242,579.135925 610.297119,581.797607 
	C610.283936,584.481506 611.183655,585.892273 614.036438,585.749451 
	C615.860779,585.658081 617.693420,585.732300 620.000732,585.730530 
z"/>
<path fill="#000000" opacity="1.000000" stroke="none" 
	d="
M554.153442,644.448975 
	C557.693115,651.855713 563.405090,657.577087 567.602844,664.346130 
	C568.371460,665.585632 569.696899,666.530090 569.650208,668.199158 
	C563.697144,670.530518 560.860840,669.839966 557.317505,665.159363 
	C554.007751,660.787292 550.724976,656.394714 547.379456,651.943481 
	C544.147095,652.915039 543.205017,655.100159 543.302917,658.048889 
	C543.374695,660.212036 543.245422,662.382324 543.332336,664.544434 
	C543.446411,667.379456 542.977661,669.349915 539.360596,669.338501 
	C535.992188,669.327881 534.574402,668.250977 534.620667,664.720215 
	C534.767029,653.561096 534.756165,642.398071 534.632385,631.238464 
	C534.594971,627.865112 536.126892,626.938110 539.179565,626.947693 
	C542.115662,626.956970 543.455627,628.040710 543.348267,631.075928 
	C543.213745,634.874878 543.315918,638.682190 544.447327,643.210266 
	C548.445984,638.977051 552.641602,634.909668 556.385437,630.461914 
	C559.835022,626.363770 563.851135,626.360168 569.004456,627.535645 
	C564.612732,634.020569 558.809937,638.554810 554.153442,644.448975 
z"/>
<path fill="#000000" opacity="1.000000" stroke="none" 
	d="
M777.651245,610.829346 
	C775.623352,610.825195 773.909607,611.242004 771.987427,609.518372 
	C774.782959,602.551941 777.633240,595.366089 780.549988,588.207397 
	C782.808716,582.664001 785.007629,577.088806 787.505188,571.652771 
	C789.208069,567.946472 795.157288,567.317505 796.705505,570.779846 
	C802.453186,583.633179 807.837708,596.648987 813.372681,609.636780 
	C806.445618,612.087036 804.736755,611.538879 802.414307,605.843323 
	C801.296265,603.101318 799.655029,601.905640 796.763062,602.114258 
	C795.107605,602.233704 793.423157,602.260498 791.774048,602.100342 
	C786.756775,601.612976 782.446777,602.108215 781.372253,608.290527 
	C781.079285,609.976196 779.690796,610.663757 777.651245,610.829346 
M793.524048,594.371826 
	C794.593384,594.018860 795.878784,594.680908 797.067993,593.437927 
	C795.653625,589.511108 795.138123,585.096191 792.065125,581.154236 
	C790.110474,585.475830 788.452271,589.369080 787.459534,593.519836 
	C789.261658,594.793213 791.091736,594.534912 793.524048,594.371826 
z"/>
<path fill="#000000" opacity="1.000000" stroke="none" 
	d="
M819.651855,655.457214 
	C821.478943,659.908508 823.144592,664.013672 824.823425,668.151245 
	C817.837952,670.354919 816.532715,669.927063 813.923218,663.951599 
	C812.727661,661.213867 811.024658,660.175598 808.180725,660.314758 
	C805.527466,660.444519 802.855652,660.460999 800.204895,660.306763 
	C796.957581,660.117798 795.034302,661.196838 793.907837,664.522644 
	C792.106567,669.840820 790.455994,670.309509 784.293396,668.246094 
	C784.032776,665.284363 785.870728,662.920593 786.855347,660.362854 
	C790.673096,650.446045 794.778870,640.640442 798.654419,630.745178 
	C799.621521,628.275940 800.999084,626.984558 803.765869,626.948181 
	C806.636658,626.910461 808.375916,627.934937 809.463989,630.682007 
	C812.705200,638.864990 816.134583,646.973511 819.651855,655.457214 
M807.545776,647.773254 
	C806.243958,645.034363 806.032715,641.784607 803.637573,639.071655 
	C801.777222,643.590698 799.710876,647.595154 799.057495,652.640625 
	C801.338745,652.640625 803.133911,652.550110 804.916626,652.660095 
	C808.288269,652.868103 809.074890,651.433472 807.545776,647.773254 
z"/>
<path fill="#000000" opacity="1.000000" stroke="none" 
	d="
M448.012634,666.008423 
	C447.067657,661.520996 444.689240,659.757507 440.438080,660.298889 
	C438.311768,660.569702 436.113831,660.469910 433.963898,660.317505 
	C431.016846,660.108582 429.437256,661.419312 428.388855,664.128723 
	C426.161621,669.884521 425.772980,669.980164 419.064270,668.633728 
	C418.098511,667.134644 418.960846,665.778992 419.477631,664.422913 
	C423.733978,653.253845 428.029755,642.099731 432.262451,630.921753 
	C433.151978,628.572693 434.267822,626.790833 437.196716,626.922852 
	C439.574707,627.029968 441.817352,626.932434 442.909912,629.759888 
	C447.755432,642.299622 452.689026,654.805237 457.568085,667.332031 
	C457.671295,667.597046 457.501404,667.968445 457.407257,668.681641 
	C454.038879,669.177246 450.445374,670.969116 448.012634,666.008423 
M434.767731,646.279358 
	C434.432861,648.158020 433.041168,649.878479 433.938812,652.149231 
	C436.576538,652.774597 439.217834,653.171265 441.992004,651.854065 
	C441.762329,647.459961 440.048096,643.869629 437.460510,639.551575 
	C436.468506,642.060059 435.768799,643.829468 434.767731,646.279358 
z"/>
<path fill="#000000" opacity="1.000000" stroke="none" 
	d="
M742.649353,648.929077 
	C742.636597,642.941528 742.661804,637.442688 742.594604,631.944946 
	C742.562500,629.318420 742.360779,626.978394 746.238708,626.952087 
	C750.066101,626.926025 751.121948,628.639160 751.054077,632.131836 
	C750.924683,638.792297 750.896118,645.463684 751.134460,652.119446 
	C751.331177,657.612793 753.768921,660.272461 758.284424,660.692078 
	C764.206726,661.242371 767.559082,658.500000 767.722656,652.538208 
	C767.914490,645.545410 767.923889,638.540894 767.756104,631.547607 
	C767.670349,627.971863 769.234070,626.942017 772.546814,626.921387 
	C775.920166,626.900391 776.746887,628.253174 776.605957,631.473938 
	C776.300720,638.451782 776.444519,645.448425 776.360107,652.436829 
	C776.234924,662.801758 769.712158,669.329407 759.509705,669.348633 
	C749.465942,669.367554 742.736206,662.609558 742.651917,652.417419 
	C742.643677,651.417725 742.649902,650.417969 742.649353,648.929077 
z"/>
<path fill="#000000" opacity="1.000000" stroke="none" 
	d="
M653.728760,635.083862 
	C654.339966,631.642822 651.742065,627.027222 657.855225,626.940918 
	C660.901245,626.897949 662.474365,627.825256 662.384094,631.205017 
	C662.219788,637.356140 662.331604,643.515137 662.356018,649.670715 
	C662.385010,656.989014 665.257935,660.700195 670.870911,660.724548 
	C677.013000,660.751221 679.606201,657.457092 679.641174,649.515564 
	C679.667480,643.526306 679.750610,637.534668 679.612549,631.548645 
	C679.540955,628.440857 680.579590,626.950378 683.871643,626.950134 
	C687.027100,626.949890 688.374695,628.110840 688.297546,631.372375 
	C688.136292,638.189941 688.417603,645.020569 688.161926,651.832581 
	C687.749817,662.811707 681.245300,669.368347 671.181519,669.333557 
	C660.921387,669.298096 654.069824,662.365234 653.772156,651.540588 
	C653.625854,646.220642 653.735596,640.893616 653.728760,635.083862 
z"/>
<path fill="#000000" opacity="1.000000" stroke="none" 
	d="
M568.172607,610.281860 
	C566.096497,609.456848 564.409729,608.753357 562.767273,607.958191 
	C559.932800,606.586121 560.983826,604.508484 561.801208,602.451416 
	C562.712219,600.158508 564.058716,599.472412 566.448242,600.611511 
	C569.786499,602.202759 573.341064,603.144592 577.086975,602.512634 
	C579.140381,602.166260 581.039124,601.253235 581.368347,598.938782 
	C581.682129,596.733887 579.954590,595.618591 578.265015,594.909729 
	C575.820496,593.884155 573.248535,593.163025 570.733643,592.304260 
	C563.881531,589.964417 560.202393,585.200562 560.949097,579.642273 
	C561.799011,573.315979 566.603882,569.211548 573.841125,568.700623 
	C576.841431,568.488770 579.780090,568.756775 582.707397,569.630981 
	C589.360657,571.618103 589.709656,572.459778 585.768677,578.523804 
	C583.271179,578.890808 581.072083,577.397583 578.683533,576.913574 
	C576.606567,576.492676 574.752197,576.659058 572.824219,577.274353 
	C571.090271,577.827698 569.850708,578.910156 569.680908,580.745911 
	C569.513062,582.561462 571.004700,583.402283 572.356812,583.972351 
	C574.488281,584.870850 576.728821,585.515442 578.934509,586.232666 
	C588.079773,589.206665 591.574463,593.853394 590.169617,601.198425 
	C588.932922,607.664307 582.918091,611.598083 574.460938,611.304016 
	C572.492737,611.235596 570.541077,610.688782 568.172607,610.281860 
z"/>
<path fill="#000000" opacity="1.000000" stroke="none" 
	d="
M765.290710,604.756653 
	C766.209412,609.866455 764.149353,611.317749 759.607727,611.024902 
	C754.312256,610.683472 748.978394,610.872192 743.662476,610.935791 
	C740.292786,610.976074 738.517029,609.967224 738.591370,606.076355 
	C738.800720,595.114258 738.727234,584.144897 738.625244,573.179749 
	C738.596191,570.063232 739.600891,568.665161 742.916748,568.696045 
	C746.074280,568.725342 747.409241,569.799561 747.358704,573.056641 
	C747.232239,581.196106 747.420288,589.340698 747.277222,597.479614 
	C747.220459,600.710083 748.447510,602.026123 751.644714,601.896179 
	C754.796021,601.768005 757.958557,601.823975 761.113342,601.907593 
	C762.881348,601.954529 764.962952,601.679810 765.290710,604.756653 
z"/>
<path fill="#000000" opacity="1.000000" stroke="none" 
	d="
M639.607056,663.381958 
	C633.971436,669.413574 628.023010,670.890808 621.384949,668.157471 
	C615.277283,665.642517 614.782349,663.666992 618.957153,658.286011 
	C620.820068,657.834106 621.935364,659.429016 623.413940,660.036499 
	C629.180298,662.405884 633.538452,659.808777 633.675537,653.630493 
	C633.837952,646.311096 633.806030,638.984619 633.700012,631.663452 
	C633.657166,628.704285 634.321106,626.926147 637.775330,626.904541 
	C641.185791,626.883301 642.502991,628.165894 642.420898,631.631958 
	C642.239624,639.283630 642.315063,646.942566 642.369507,654.597961 
	C642.391663,657.713928 641.418518,660.468933 639.607056,663.381958 
z"/>
<path fill="#000000" opacity="1.000000" stroke="none" 
	d="
M299.963013,461.904358 
	C308.272339,457.259888 316.244904,452.766479 324.253387,448.338074 
	C325.777100,447.495544 327.460724,445.905426 329.208069,447.599213 
	C331.011536,449.347473 329.265198,451.030640 328.484924,452.531677 
	C322.089172,464.834778 314.203186,476.254578 305.572235,486.980377 
	C297.100922,497.507660 293.157288,508.493134 294.078247,522.156067 
	C294.951050,535.104492 296.806763,534.844727 281.170349,537.578857 
	C270.522552,539.440674 260.092316,539.657288 249.514587,537.457214 
	C245.444595,536.610779 243.913864,534.337341 243.905594,530.519836 
	C243.890091,523.361023 243.716217,516.197754 243.921783,509.045288 
	C244.034164,505.134613 242.678284,502.038666 240.497360,498.931488 
	C231.131104,485.587433 221.265564,472.574524 212.973953,458.507507 
	C211.378586,455.800903 207.956360,452.343506 210.639313,449.640137 
	C213.437134,446.821045 216.180481,451.001465 218.718048,452.457703 
	C234.022095,461.240326 250.060516,468.600555 265.612366,476.895721 
	C268.637787,478.509460 271.132996,478.204651 273.988708,476.547394 
	C282.478516,471.620544 291.080536,466.887024 299.963013,461.904358 
z"/>
<path fill="#000000" opacity="1.000000" stroke="none" 
	d="
M293.449585,435.934479 
	C295.655396,446.764374 290.530701,457.391907 281.038971,462.234070 
	C270.301727,467.711609 257.302521,465.385956 249.578659,456.605530 
	C242.457474,448.510223 241.784653,436.548523 247.938126,427.439575 
	C259.767456,409.928680 280.135986,410.230591 290.425964,428.142273 
	C291.732452,430.416412 292.409332,433.052277 293.449585,435.934479 
z"/>
</svg>